# Blender v2.93.1 OBJ File: ''
# www.blender.org
mtllib board_medium.mtl
o board-medium_board-medium.001
v 0.080000 0.000000 -0.080000
v 0.100000 0.000000 -0.100000
v 0.080000 0.000000 0.080000
v 0.100000 0.000000 0.100000
v -0.080000 0.000000 0.080000
v -0.100000 0.000000 0.100000
v -0.080000 0.000000 -0.080000
v -0.100000 0.000000 -0.100000
v 0.100000 0.200000 -0.100000
v 0.100000 0.200000 0.100000
v -0.100000 0.200000 -0.100000
v -0.100000 0.200000 0.100000
v 0.028000 0.200000 0.000000
v 0.026483 0.200000 0.009092
v 0.022096 0.200000 0.017198
v -0.024625 0.200000 -0.013327
v -0.018964 0.200000 -0.020600
v 0.015315 0.200000 0.023441
v 0.006874 0.200000 0.027143
v -0.011247 0.200000 -0.025642
v -0.002312 0.200000 -0.027904
v 0.006874 0.200000 -0.027143
v 0.015315 0.200000 -0.023441
v -0.002312 0.200000 0.027904
v -0.011247 0.200000 0.025642
v -0.018964 0.200000 0.020600
v 0.022096 0.200000 -0.017198
v 0.026483 0.200000 -0.009092
v -0.024625 0.200000 0.013327
v -0.027618 0.200000 0.004609
v -0.027618 0.200000 -0.004609
v 0.080000 0.180000 0.080000
v 0.080000 0.180000 -0.080000
v -0.080000 0.180000 -0.080000
v -0.080000 0.180000 0.080000
v -0.024625 0.180000 0.013327
v -0.018964 0.180000 0.020600
v 0.028000 0.180000 0.000000
v 0.026483 0.180000 -0.009092
v 0.022096 0.180000 -0.017198
v 0.015315 0.180000 -0.023441
v 0.006874 0.180000 -0.027143
v -0.002312 0.180000 -0.027904
v -0.011247 0.180000 -0.025642
v -0.018964 0.180000 -0.020600
v -0.024625 0.180000 -0.013327
v -0.027618 0.180000 -0.004609
v -0.028000 0.180000 0.000000
v -0.027618 0.180000 0.004609
v -0.011247 0.180000 0.025642
v -0.002312 0.180000 0.027904
v 0.006874 0.180000 0.027143
v 0.015315 0.180000 0.023441
v 0.022096 0.180000 0.017198
v 0.026483 0.180000 0.009092
v -0.100000 0.000000 0.100000
v -0.100000 0.200000 -0.100000
v -0.100000 0.000000 -0.100000
vt 0.933547 0.890351
vt 0.971656 0.999936
vt 0.603064 0.840631
vt 0.564564 0.913664
vt 0.602505 0.158479
vt 0.565122 0.083965
vt 0.933881 0.108044
vt 0.971656 0.000064
vt 0.302837 1.000000
vt 0.006541 1.000000
vt 0.302837 0.000000
vt 0.006541 0.000000
vt 0.302837 0.000000
vt 0.006541 0.000000
vt 0.006541 1.000000
vt 0.211669 0.307692
vt 0.416797 0.000000
vt 0.416797 1.000000
vt 0.302837 0.000000
vt 0.302837 1.000000
vt 0.006541 1.000000
vt 0.302837 0.000000
vt 0.154689 0.360000
vt 0.006541 0.000000
vt 0.141219 0.367585
vt 0.129210 0.389520
vt 0.302837 1.000000
vt 0.174433 0.623125
vt 0.185207 0.594820
vt 0.119961 0.423425
vt 0.114477 0.465630
vt 0.006541 1.000000
vt 0.192677 0.556235
vt 0.196028 0.511560
vt 0.194901 0.465630
vt 0.189416 0.423425
vt 0.113350 0.511560
vt 0.116701 0.556235
vt 0.124170 0.594820
vt 0.180167 0.389520
vt 0.168158 0.367585
vt 0.134945 0.623125
vt 0.147861 0.638090
vt 0.161517 0.638090
vt 0.764904 0.534555
vt 0.786512 0.509986
vt 0.767026 0.462436
vt 0.753745 0.493003
vt 0.763566 0.494515
vt 0.763307 0.498106
vt 0.771438 0.509357
vt 0.772365 0.506926
vt 0.772873 0.503918
vt 0.772851 0.500579
vt 0.772242 0.497385
vt 0.771386 0.493535
vt 0.770056 0.490724
vt 0.768504 0.489108
vt 0.766927 0.488631
vt 0.765433 0.489100
vt 0.764728 0.489140
vt 0.764274 0.491110
vt 0.763514 0.501801
vt 0.764233 0.505401
vt 0.765271 0.508053
vt 0.766619 0.509925
vt 0.768171 0.510846
vt 0.769817 0.510689
vt 0.977490 0.583768
vt 0.951671 0.584014
vt 0.951671 0.000711
vt 0.938021 0.584046
vt 0.924371 0.000711
vt 0.924371 0.584014
vt 0.898552 0.000465
vt 0.898552 0.583768
vt 0.776532 0.583306
vt 0.776532 0.000000
vt 0.798073 0.583306
vt 0.798073 0.000000
vt 0.823893 0.583306
vt 0.823893 0.000000
vt 0.851190 0.583306
vt 0.851190 0.000000
vt 0.877009 0.583306
vt 0.877009 0.000000
vt 0.898552 0.583306
vt 0.898552 0.000000
vt 0.654513 0.000000
vt 0.654513 0.583306
vt 0.632970 0.000000
vt 0.632970 0.583306
vt 0.607152 0.000000
vt 0.607152 0.583306
vt 0.579853 0.000000
vt 0.579853 0.583306
vt 0.554033 0.000000
vt 0.554033 0.583306
vt 0.532493 0.000000
vt 0.532493 0.583306
vt 0.776532 0.000000
vt 0.776532 0.583306
vt 0.754992 0.000000
vt 0.754992 0.583306
vt 0.729173 0.000000
vt 0.729173 0.583306
vt 0.701875 0.000000
vt 0.701875 0.583306
vt 0.676056 0.000000
vt 0.676056 0.583306
vt 0.654513 0.000000
vt 0.654513 0.583306
vt 0.999030 0.000000
vt 0.999030 0.583303
vt 0.977490 0.000465
vt 0.211669 0.000000
vt 0.211669 1.000000
vt 0.006541 0.307692
vn 0.0000 -1.0000 0.0000
vn 1.0000 0.0000 0.0000
vn 0.0000 0.0000 -1.0000
vn -1.0000 0.0000 0.0000
vn 0.0000 0.0000 1.0000
vn 0.0000 1.0000 0.0000
vn 0.9458 0.0000 -0.3247
vn 0.9966 0.0000 -0.0826
vn 0.9998 -0.0191 0.0000
vn 0.9966 0.0000 0.0826
vn 0.9458 0.0000 0.3247
vn 0.7891 0.0000 0.6142
vn 0.5470 0.0000 0.8372
vn 0.2454 0.0000 0.9694
vn -0.0826 0.0000 0.9966
vn -0.4016 0.0000 0.9158
vn -0.6773 0.0000 0.7357
vn -0.8795 0.0000 0.4760
vn -0.9864 0.0000 0.1646
vn -0.9864 0.0000 -0.1646
vn -0.8795 0.0000 -0.4760
vn -0.6773 0.0000 -0.7357
vn -0.4016 0.0000 -0.9158
vn -0.0826 0.0000 -0.9966
vn 0.2454 0.0000 -0.9694
vn 0.5470 0.0000 -0.8372
vn 0.7891 0.0000 -0.6142
usemtl wood
s 1
f 1/1/1 2/2/1 3/3/1
f 3/3/1 2/2/1 4/4/1
f 3/3/1 4/4/1 5/5/1
f 5/5/1 4/4/1 6/6/1
f 5/5/1 6/6/1 7/7/1
f 7/7/1 6/6/1 8/8/1
f 7/7/1 8/8/1 1/1/1
f 1/1/1 8/8/1 2/2/1
f 9/9/2 10/10/2 2/11/2
f 2/11/2 10/10/2 4/12/2
f 11/13/3 9/9/3 8/14/3
f 8/14/3 9/9/3 2/15/3
f 12/16/4 11/17/4 6/18/4
f 10/19/5 12/20/5 4/12/5
f 4/12/5 12/20/5 6/21/5
f 9/22/6 13/23/6 10/24/6
f 10/24/6 13/23/6 14/25/6
f 10/24/6 14/25/6 15/26/6
f 11/27/6 16/28/6 17/29/6
f 15/26/6 18/30/6 10/24/6
f 10/24/6 18/30/6 19/31/6
f 10/24/6 19/31/6 12/32/6
f 17/29/6 20/33/6 11/27/6
f 11/27/6 20/33/6 21/34/6
f 11/27/6 21/34/6 9/22/6
f 9/22/6 21/34/6 22/35/6
f 9/22/6 22/35/6 23/36/6
f 19/31/6 24/37/6 12/32/6
f 12/32/6 24/37/6 25/38/6
f 12/32/6 25/38/6 26/39/6
f 23/36/6 27/40/6 9/22/6
f 9/22/6 27/40/6 28/41/6
f 9/22/6 28/41/6 13/23/6
f 26/39/6 29/42/6 12/32/6
f 12/32/6 29/42/6 30/43/6
f 12/32/6 30/43/6 11/27/6
f 11/27/6 30/43/6 31/44/6
f 11/27/6 31/44/6 16/28/6
f 32/45/4 33/46/4 3/3/4
f 3/3/4 33/46/4 1/1/4
f 33/46/5 34/47/5 1/1/5
f 1/1/5 34/47/5 7/7/5
f 34/47/2 35/48/2 7/7/2
f 7/7/2 35/48/2 5/5/2
f 35/48/3 32/45/3 5/5/3
f 5/5/3 32/45/3 3/3/3
f 35/48/1 36/49/1 37/50/1
f 32/45/1 38/51/1 33/46/1
f 33/46/1 38/51/1 39/52/1
f 33/46/1 39/52/1 40/53/1
f 40/53/1 41/54/1 33/46/1
f 33/46/1 41/54/1 42/55/1
f 33/46/1 42/55/1 34/47/1
f 34/47/1 42/55/1 43/56/1
f 43/56/1 44/57/1 34/47/1
f 34/47/1 44/57/1 45/58/1
f 34/47/1 45/58/1 46/59/1
f 46/59/1 47/60/1 34/47/1
f 34/47/1 47/60/1 48/61/1
f 34/47/1 48/61/1 35/48/1
f 35/48/1 48/61/1 49/62/1
f 35/48/1 49/62/1 36/49/1
f 37/50/1 50/63/1 35/48/1
f 35/48/1 50/63/1 51/64/1
f 35/48/1 51/64/1 32/45/1
f 32/45/1 51/64/1 52/65/1
f 32/45/1 52/65/1 53/66/1
f 53/66/1 54/67/1 32/45/1
f 32/45/1 54/67/1 55/68/1
f 32/45/1 55/68/1 38/51/1
f 36/69/7 49/70/7 30/71/7
f 30/71/8 49/70/8 48/72/8
f 30/71/9 48/72/9 31/73/9
f 31/73/10 48/72/10 47/74/10
f 31/73/11 47/74/11 16/75/11
f 16/75/11 47/74/11 46/76/11
f 16/77/12 46/78/12 17/79/12
f 17/79/12 46/78/12 45/80/12
f 17/79/13 45/80/13 20/81/13
f 20/81/13 45/80/13 44/82/13
f 20/81/14 44/82/14 21/83/14
f 21/83/14 44/82/14 43/84/14
f 21/83/15 43/84/15 22/85/15
f 22/85/15 43/84/15 42/86/15
f 22/85/16 42/86/16 23/87/16
f 23/87/16 42/86/16 41/88/16
f 23/89/17 41/90/17 27/91/17
f 27/91/17 41/90/17 40/92/17
f 27/91/18 40/92/18 28/93/18
f 28/93/18 40/92/18 39/94/18
f 28/93/19 39/94/19 13/95/19
f 13/95/19 39/94/19 38/96/19
f 13/95/20 38/96/20 14/97/20
f 14/97/20 38/96/20 55/98/20
f 14/97/21 55/98/21 15/99/21
f 15/99/21 55/98/21 54/100/21
f 15/101/22 54/102/22 18/103/22
f 18/103/22 54/102/22 53/104/22
f 18/103/23 53/104/23 19/105/23
f 19/105/23 53/104/23 52/106/23
f 19/105/24 52/106/24 24/107/24
f 24/107/24 52/106/24 51/108/24
f 24/107/25 51/108/25 25/109/25
f 25/109/25 51/108/25 50/110/25
f 25/109/26 50/110/26 26/111/26
f 26/111/26 50/110/26 37/112/26
f 26/113/27 37/114/27 29/115/27
f 29/115/27 37/114/27 36/69/27
f 29/115/7 36/69/7 30/71/7
f 56/116/4 57/117/4 58/118/4
