# Blender v2.93.3 OBJ File: ''
# www.blender.org
mtllib cylinder.mtl
o cylinder_cylinder.002
v 0.028213 0.000154 0.000000
v 0.025526 -0.000020 0.075000
v 0.022796 0.000053 0.000000
v 0.041032 0.044248 0.000000
v 0.021279 0.000246 0.075000
v 0.000154 0.028213 0.075000
v 0.029838 0.000434 0.075000
v 0.018490 0.000843 0.000000
v 0.017616 0.001098 0.075000
v 0.033306 0.001377 0.000000
v 0.033788 0.001577 0.075000
v 0.014489 0.002266 0.000000
v 0.014172 0.002436 0.075000
v 0.037170 0.003119 0.075000
v 0.037259 0.003185 0.000000
v 0.010355 0.004675 0.075000
v 0.010865 0.004350 0.000000
v 0.040641 0.005451 0.000000
v 0.041206 0.005907 0.075000
v 0.008236 0.006435 0.000000
v 0.006212 0.008438 0.075000
v 0.044260 0.008990 0.000000
v 0.005678 0.009075 0.000000
v 0.044334 0.009121 0.075000
v 0.046696 0.012511 0.075000
v 0.003421 0.012326 0.075000
v 0.003115 0.012850 0.000000
v 0.046733 0.012611 0.000000
v 0.001861 0.015495 0.075000
v 0.048398 0.016099 0.000000
v 0.048205 0.015663 0.075000
v 0.001635 0.016069 0.000000
v 0.000824 0.018534 0.075000
v 0.049285 0.018953 0.075000
v 0.000636 0.019278 0.000000
v 0.049488 0.019874 0.000000
v 0.000044 0.022942 0.075000
v 0.049991 0.023404 0.075000
v 0.000150 0.022204 0.000000
v 0.049980 0.023526 0.000000
v -0.000020 0.025526 0.000000
v 0.049836 0.028271 0.000000
v 0.048724 0.032959 0.000000
v 0.046876 0.037203 0.000000
v 0.044162 0.041090 0.000000
v 0.031994 0.049035 0.000000
v 0.036603 0.047195 0.000000
v 0.027847 0.049857 0.000000
v 0.024511 0.050010 0.000000
v 0.021083 0.049719 0.000000
v 0.016775 0.048649 0.000000
v 0.012511 0.046696 0.000000
v 0.009121 0.044334 0.000000
v 0.005907 0.041206 0.000000
v 0.003119 0.037170 0.000000
v 0.001577 0.033788 0.000000
v 0.000434 0.029838 0.000000
v 0.003185 0.037259 0.075000
v 0.001377 0.033306 0.075000
v 0.005451 0.040641 0.075000
v 0.008990 0.044260 0.075000
v 0.013469 0.047235 0.075000
v 0.017970 0.049020 0.075000
v 0.021408 0.049754 0.075000
v 0.024830 0.050031 0.075000
v 0.029456 0.049642 0.075000
v 0.033297 0.048607 0.075000
v 0.036227 0.047354 0.075000
v 0.039206 0.045600 0.075000
v 0.042693 0.042737 0.075000
v 0.045632 0.039156 0.075000
v 0.047491 0.035984 0.075000
v 0.049070 0.031886 0.075000
v 0.049877 0.027691 0.075000
vt 0.900844 0.000000
vt 1.000000 0.000000
vt 1.004983 0.996583
vt 0.576658 0.576658
vt 1.000000 0.000000
vt 0.505214 0.505214
vt 0.892444 0.012599
vt 1.000000 0.000000
vt 0.533427 0.000000
vt 0.575162 0.575162
vt 1.000000 0.000000
vt 1.000000 1.000000
vt 0.000000 0.000000
vt 1.000000 0.000000
vt 0.894544 0.000000
vt 1.000000 0.000000
vt 1.000000 1.000000
vt 0.000000 0.000000
vt 1.000000 0.000000
vt 1.000000 0.000000
vt 1.004553 0.999303
vt 0.896644 0.000000
vt 0.886607 0.006500
vt 1.000000 1.000000
vt 1.000000 0.000000
vt 1.000000 1.000000
vt 1.000000 0.000000
vt 1.000000 1.000000
vt 0.000000 0.000000
vt 0.888244 0.000000
vt 1.000000 0.000000
vt 1.000000 1.000000
vt 0.000000 0.000000
vt 1.000000 0.000000
vt 1.007976 1.002726
vt 1.000000 1.000000
vt 0.894143 0.007999
vt 1.000000 0.000000
vt 1.000000 1.000000
vt 0.000000 0.000000
vt 0.896644 -0.009449
vt 1.000000 1.000000
vt 1.000000 0.000000
vt 0.898744 0.009449
vt 1.000000 0.000000
vt 1.000000 1.000000
vt 0.900071 -0.006300
vt 1.000000 0.000000
vt 0.000000 0.000000
vt 1.000000 1.000000
vt 0.896644 0.003150
vt 0.997900 0.011113
vt 1.000000 1.000000
vt 1.000000 0.000000
vt 0.902943 -0.006300
vt 1.000000 0.000000
vt 1.000000 1.000000
vt 0.000000 0.000000
vt 0.905043 0.003150
vt 1.000000 0.000000
vt 1.000000 1.000000
vt 0.000000 0.000000
vt 1.000000 0.000000
vt 1.000000 1.000000
vt 1.000000 1.000000
vt 0.917643 0.000000
vt 1.004200 0.006660
vt 1.000000 1.000000
vt 1.000000 0.000000
vt 0.903237 0.000000
vt 1.000000 0.000000
vt 0.000000 0.000000
vt 0.892444 0.009449
vt 1.000000 0.000000
vt 1.000000 1.000000
vt 0.000000 0.000000
vt 0.884448 -0.009046
vt 1.000000 0.000000
vt 1.000000 1.000000
vt 0.000000 0.000000
vt 0.894544 0.006300
vt 1.000000 0.000000
vt 1.000000 1.000000
vt 0.895083 0.000000
vt 1.000000 0.000000
vt 0.000000 0.000000
vt 1.000000 1.000000
vt 0.905043 0.000000
vt 1.000000 1.000000
vt 1.000000 0.000000
vt 0.896644 0.003150
vt 1.000000 0.000000
vt 1.000000 1.000000
vt 1.000000 1.000000
vt 0.000000 0.000000
vt 1.000000 0.451492
vt 1.000000 1.000000
vt 1.000000 0.000000
vt 0.961740 0.998487
vt 1.000000 0.000000
vt 1.000000 1.000000
vt 0.000000 0.000000
vt 0.888244 0.000000
vt 1.000000 0.000000
vt 0.000000 0.000000
vt 1.000000 0.000000
vt 1.000000 1.000000
vt 1.000000 1.000000
vt 0.944174 0.990371
vt 1.000000 0.000000
vt 1.000000 1.000000
vt 0.000000 0.000000
vt 0.911197 0.000000
vt 1.000000 0.000000
vt 0.000000 0.000000
vt 0.926042 0.000000
vt 1.000000 1.000000
vt 1.000000 0.000000
vt 0.905043 -0.006300
vt 1.000000 0.000000
vt 1.000000 1.000000
vt 1.000000 1.000000
vt 0.937294 1.002389
vt 1.000000 0.000000
vt 1.000000 1.000000
vt 0.000000 0.000000
vt 0.901865 -0.003150
vt 1.000000 0.000000
vt 0.000000 0.000000
vt 0.000000 0.000000
vt 1.000000 1.000000
vt 1.000000 0.000000
vt 0.890344 -0.006300
vt 1.000000 0.000000
vt 1.000000 1.000000
vt 0.424838 0.000000
vt 0.000000 0.000000
vt 1.000000 0.358933
vt 0.423342 0.423342
vt 0.000000 0.000000
vt 1.000000 0.000000
vt 0.000000 0.000000
vt 1.000000 0.000000
vt 0.000000 0.000000
vt 1.000000 0.000000
vt 0.000000 0.000000
vt 1.000000 0.000000
vt 0.000000 0.000000
vt 1.000000 0.000000
vt 0.000000 0.000000
vt 1.000000 0.000000
vt 0.000000 0.000000
vt 1.000000 0.000000
vt 0.000000 0.000000
vt 1.000000 0.000000
vt 0.000000 0.000000
vt 1.000000 0.000000
vt 0.000000 0.000000
vt 1.000000 0.000000
vt 0.000000 0.000000
vt 1.000000 0.000000
vt 0.000000 0.000000
vt 1.000000 0.000000
vt 0.000000 0.000000
vt 1.000000 0.000000
vt 0.000000 0.000000
vt 1.000000 0.000000
vt 0.000000 0.000000
vt 1.000000 0.000000
vt 0.425151 0.000000
vt 0.582527 0.000000
vt 1.000000 0.466573
vt 0.427643 0.000000
vt 0.432629 0.000000
vt 0.369655 0.000000
vt 0.392284 0.000000
vt 0.630345 0.000000
vt 0.521064 0.000000
vt 0.513906 0.000000
vt 0.000000 0.000000
vt 0.000000 0.000000
vt 1.000000 0.000000
vt 0.000000 0.000000
vt 1.000000 0.000000
vt 0.000000 0.000000
vt 1.000000 0.000000
vt 0.000000 0.000000
vt 1.000000 0.000000
vt 0.000000 0.000000
vt 1.000000 0.000000
vt 0.000000 0.000000
vt 1.000000 0.000000
vt 0.000000 0.000000
vt 1.000000 0.000000
vt 0.000000 0.000000
vt 1.000000 0.000000
vt 0.406120 0.406120
vt 1.000000 0.000000
vt 1.000000 0.994086
vt 0.875645 0.012599
vt 0.997900 0.002945
vt 1.000000 1.000000
vt 0.871446 0.003795
vt 1.000000 1.000000
vt 0.898804 -0.009449
vt 1.000000 1.000000
vt 0.873291 0.001846
vt 1.000000 1.000000
vt 0.913443 -0.003150
vt 0.997037 0.000000
vt 1.000000 1.000000
vt 0.874470 0.002630
vt 1.000000 1.000000
vt 0.884908 -0.012599
vt 0.868781 0.005735
vt 1.000000 1.000000
vt 0.871991 0.004267
vt 1.000000 1.000000
vt 0.881544 -0.009449
vt 1.000000 1.000000
vt 0.999022 -0.006300
vt 1.000000 0.997000
vt 0.874523 0.000978
vt 1.000000 1.000000
vt 0.885237 0.000000
vt 1.000000 1.000000
vt 0.883315 0.012599
vt 0.871446 0.009449
vt 1.002100 -0.000014
vt 1.000000 1.000000
vt 0.896644 0.006300
vt 1.000000 1.000000
vt 1.000730 -0.006300
vt 0.873952 0.003150
vt 1.000000 1.000000
vt 0.887991 0.004890
vt 1.000000 1.000000
vt 0.879901 0.003150
vt 0.885339 0.006544
vt 1.000000 1.000000
vt 0.876052 -0.009449
vt 1.000000 1.000000
vt 0.894951 -0.006300
vt 0.997822 -0.006300
vt 1.006300 0.996409
vt 0.879845 0.003150
vt 0.997900 0.984239
vt 1.000491 0.002390
vt 1.000000 1.000000
vt 0.884123 -0.003150
vt 1.000000 1.000000
vt 0.888073 0.011378
vt 1.000000 1.000000
vt 0.877745 0.006300
vt 1.000000 1.000000
vt 1.000391 -0.009449
vt 1.008399 0.999033
vt 1.000000 1.000000
vt 1.000000 1.000000
vt 0.880011 0.009449
vt 0.993700 0.982979
vt 0.869891 0.003622
vt 1.000000 1.000000
vt 0.990062 -0.003150
vt 1.000000 1.000000
vt 0.893982 0.009449
vt 0.997763 0.007675
vt 1.000000 1.000000
vt 0.900844 0.031498
vt 1.000000 1.000000
vn 0.1225 -0.9925 -0.0015
vn 0.0233 -0.9997 -0.0025
vn -0.0860 -0.9963 -0.0013
vn 0.4623 0.5619 -0.6859
vn 0.0000 0.0000 -1.0000
vn -0.1409 -0.9900 0.0010
vn -0.7230 0.0932 0.6845
vn 0.0000 0.0000 1.0000
vn 0.1967 -0.9805 0.0011
vn -0.2630 -0.9648 -0.0009
vn -0.2943 -0.9557 -0.0037
vn 0.3236 -0.9462 0.0023
vn 0.3518 -0.9361 0.0003
vn -0.4208 -0.9072 0.0037
vn -0.4317 -0.9020 0.0002
vn 0.4971 -0.8677 0.0002
vn 0.4840 -0.8751 -0.0002
vn -0.5883 -0.8086 0.0007
vn -0.5649 -0.8251 -0.0002
vn 0.6269 -0.7791 -0.0005
vn 0.6490 -0.7608 0.0006
vn -0.6745 -0.7383 -0.0008
vn -0.7437 -0.6685 0.0012
vn 0.7634 -0.6459 -0.0006
vn -0.7785 -0.6276 -0.0006
vn 0.7740 -0.6332 0.0004
vn 0.8663 -0.4996 0.0000
vn -0.8555 -0.5179 0.0007
vn -0.8731 -0.4875 -0.0005
vn 0.8645 -0.5026 -0.0002
vn -0.9220 -0.3872 0.0005
vn 0.9331 -0.3595 -0.0005
vn 0.9295 -0.3687 0.0002
vn -0.9328 -0.3604 0.0033
vn -0.9675 -0.2527 -0.0023
vn 0.9730 -0.2307 0.0007
vn -0.9740 -0.2265 -0.0002
vn 0.9777 -0.2102 -0.0006
vn -0.7280 -0.0555 0.6833
vn 0.9982 -0.0605 0.0002
vn -0.9946 -0.1036 -0.0004
vn 0.9984 -0.0562 -0.0002
vn -0.9995 0.0311 -0.0011
vn 0.5590 0.4659 -0.6859
vn 0.3387 0.6421 -0.6877
vn -0.6842 0.2376 0.6895
vn 0.9920 0.1265 -0.0006
vn 0.9937 0.1122 0.0003
vn -0.9805 0.1967 -0.0011
vn 0.9601 0.2796 0.0008
vn 0.9500 0.3122 -0.0011
vn -0.9361 0.3518 -0.0003
vn 0.8990 0.4380 0.0010
vn 0.8749 0.4843 -0.0011
vn -0.8677 0.4971 -0.0002
vn -0.8751 0.4840 0.0002
vn 0.8179 0.5754 0.0011
vn -0.7791 0.6269 0.0005
vn -0.7608 0.6490 -0.0006
vn 0.7041 0.7101 0.0013
vn -0.6411 0.7675 0.0010
vn -0.6332 0.7740 -0.0004
vn 0.5689 0.8224 0.0011
vn -0.4925 0.8703 -0.0007
vn -0.4675 0.8840 0.0011
vn 0.4470 0.8945 0.0004
vn -0.3259 0.9454 -0.0010
vn 0.3236 0.9462 0.0005
vn 0.2882 0.9576 -0.0012
vn -0.2937 0.9559 0.0008
vn 0.1683 0.9857 0.0010
vn -0.1587 0.9873 -0.0004
vn -0.1493 0.9888 0.0002
vn 0.1246 0.9922 -0.0009
vn -0.0032 1.0000 0.0005
vn -0.0151 0.9999 -0.0002
usemtl wood.001
s 1
f 1/1/1 2/2/2 3/3/3
f 4/4/4 1/5/5 3/6/5
f 2/7/2 5/8/6 3/3/3
f 6/9/7 5/8/8 2/10/8
f 1/1/1 7/11/9 2/12/2
f 7/13/8 6/14/7 2/12/8
f 5/15/6 8/16/10 3/17/3
f 8/18/5 4/19/4 3/17/5
f 5/15/6 9/20/11 8/21/10
f 10/22/12 7/23/9 1/24/1
f 4/4/4 10/25/5 1/24/5
f 6/9/7 9/20/8 5/26/8
f 10/22/12 11/27/13 7/28/9
f 11/29/8 6/14/7 7/28/8
f 9/30/11 12/31/14 8/32/10
f 12/33/5 4/19/4 8/32/5
f 9/30/11 13/34/15 12/35/14
f 6/9/7 13/34/8 9/36/8
f 10/37/12 14/38/16 11/39/13
f 14/40/8 6/14/7 11/39/8
f 15/41/17 14/38/16 10/42/12
f 4/4/4 15/43/5 10/42/5
f 13/44/15 16/45/18 12/46/14
f 16/47/18 17/48/19 12/46/14
f 17/49/5 4/19/4 12/46/5
f 6/9/7 16/45/8 13/50/8
f 18/51/20 14/52/16 15/53/17
f 4/4/4 18/54/5 15/53/5
f 18/55/20 19/56/21 14/57/16
f 19/58/8 6/14/7 14/57/8
f 16/59/18 20/60/22 17/61/19
f 20/62/5 4/19/4 17/61/5
f 16/59/18 21/63/23 20/64/22
f 6/9/7 21/63/8 16/65/8
f 22/66/24 19/67/21 18/68/20
f 4/4/4 22/69/5 18/68/5
f 21/70/23 23/71/25 20/64/22
f 23/72/5 4/19/4 20/64/5
f 22/73/24 24/74/26 19/75/21
f 24/76/8 6/14/7 19/75/8
f 22/77/24 25/78/27 24/79/26
f 25/80/8 6/14/7 24/79/8
f 21/81/23 26/82/28 23/83/25
f 26/84/28 27/85/29 23/83/25
f 27/86/5 4/19/4 23/83/5
f 6/9/7 26/82/8 21/87/8
f 28/88/30 25/78/27 22/89/24
f 4/4/4 28/90/5 22/89/5
f 26/91/28 29/92/31 27/93/29
f 6/9/7 29/92/8 26/94/8
f 30/95/32 25/96/27 28/97/30
f 4/4/4 30/98/5 28/97/5
f 30/99/32 31/100/33 25/101/27
f 31/102/8 6/14/7 25/101/8
f 29/103/31 32/104/34 27/93/29
f 32/105/5 4/19/4 27/93/5
f 29/103/31 33/106/35 32/107/34
f 6/9/7 33/106/8 29/108/8
f 30/109/32 34/110/36 31/111/33
f 34/112/8 6/14/7 31/111/8
f 33/113/35 35/114/37 32/107/34
f 35/115/5 4/19/4 32/107/5
f 36/116/38 34/110/36 30/117/32
f 4/4/4 36/118/5 30/117/5
f 33/119/35 37/120/39 35/121/37
f 6/9/7 37/120/39 33/122/8
f 36/123/38 38/124/40 34/125/36
f 38/126/8 6/14/7 34/125/8
f 37/127/39 39/128/41 35/121/37
f 39/129/5 4/19/4 35/121/5
f 40/130/42 38/124/40 36/131/38
f 4/4/4 40/132/5 36/131/5
f 37/133/39 41/134/43 39/135/41
f 41/136/5 4/19/4 39/135/5
f 42/137/5 40/138/5 4/139/4
f 43/140/5 42/141/5 4/139/4
f 44/142/5 43/143/5 4/139/4
f 45/144/44 44/145/5 4/139/4
f 46/146/5 47/147/45 4/139/4
f 48/148/5 46/149/5 4/139/4
f 49/150/5 48/151/5 4/139/4
f 50/152/5 49/153/5 4/139/4
f 51/154/5 50/155/5 4/139/4
f 52/156/5 51/157/5 4/139/4
f 53/158/5 52/159/5 4/139/4
f 54/160/5 53/161/5 4/139/4
f 55/162/5 54/163/5 4/139/4
f 56/164/5 55/165/5 4/139/4
f 57/166/5 56/167/5 4/139/4
f 41/168/5 57/169/5 4/139/4
f 58/170/8 59/171/46 6/172/7
f 60/173/8 58/170/8 6/172/7
f 61/174/8 60/173/8 6/172/7
f 62/175/8 61/174/8 6/172/7
f 63/176/8 62/177/8 6/172/7
f 64/178/8 63/176/8 6/172/7
f 65/179/8 64/178/8 6/172/7
f 66/180/8 65/179/8 6/172/7
f 67/181/8 66/182/8 6/172/7
f 68/183/8 67/184/8 6/172/7
f 69/185/8 68/186/8 6/172/7
f 70/187/8 69/188/8 6/172/7
f 71/189/8 70/190/8 6/172/7
f 72/191/8 71/192/8 6/172/7
f 73/193/8 72/194/8 6/172/7
f 74/195/8 73/196/8 6/172/7
f 38/197/8 74/198/8 6/172/7
f 37/133/39 6/14/7 41/199/43
f 42/200/47 38/201/40 40/202/42
f 42/203/47 74/198/48 38/204/40
f 6/205/7 57/169/49 41/206/43
f 42/207/47 73/196/50 74/208/48
f 6/209/7 59/210/46 57/211/49
f 43/212/51 73/196/50 42/213/47
f 59/214/46 56/167/52 57/211/49
f 43/215/51 72/194/53 73/216/50
f 44/217/54 72/194/53 43/218/51
f 59/219/46 55/165/55 56/220/52
f 59/219/46 58/221/56 55/222/55
f 44/223/54 71/192/57 72/224/53
f 58/221/56 60/225/58 55/226/55
f 60/227/58 54/163/59 55/226/55
f 45/228/44 71/229/57 44/230/54
f 45/231/44 70/190/60 71/232/57
f 60/233/58 61/234/61 54/235/59
f 4/236/4 70/190/60 45/237/44
f 61/238/61 53/161/62 54/235/59
f 4/239/4 69/188/63 70/240/60
f 61/241/61 52/159/64 53/242/62
f 61/243/61 62/244/65 52/245/64
f 47/246/45 69/247/63 4/248/4
f 47/246/45 68/186/66 69/249/63
f 62/250/65 51/157/67 52/251/64
f 47/252/45 67/184/68 68/253/66
f 46/254/69 67/184/68 47/255/45
f 62/250/65 63/256/70 51/257/67
f 46/254/69 66/182/71 67/258/68
f 63/256/70 50/155/72 51/259/67
f 63/256/70 64/260/73 50/261/72
f 48/262/74 66/182/71 46/263/69
f 64/260/73 65/264/75 50/265/72
f 65/266/75 49/153/76 50/265/72
f 48/267/74 65/266/75 66/268/71
f 49/269/76 65/266/75 48/270/74
