# Blender v2.93.1 OBJ File: ''
# www.blender.org
mtllib door_link_collision.mtl
o Shape_IndexedFaceSet_Shape_IndexedFaceSet.015
v 0.010000 0.267500 -0.045000
v 0.010000 0.267500 -0.005000
v 0.010000 0.495000 -0.045000
v 0.010000 0.495000 -0.005000
v 0.300000 0.267500 -0.045000
v 0.300000 0.267500 -0.005000
v 0.300000 0.495000 -0.045000
v 0.300000 0.495000 -0.005000
vt 0.000000 0.000000
vt 0.000000 1.000000
vt 0.000000 0.000000
vt 0.000000 1.000000
vt 1.000000 0.000000
vt 1.000000 0.000000
vt 1.000000 1.000000
vt 1.000000 1.000000
vn -1.0000 0.0000 0.0000
vn 0.0000 -1.0000 0.0000
vn 1.0000 0.0000 0.0000
vn 0.0000 1.0000 0.0000
vn 0.0000 0.0000 1.0000
vn 0.0000 0.0000 -1.0000
usemtl None
s off
f 2/1/1 4/2/1 1/3/1
f 1/3/1 4/2/1 3/4/1
f 6/5/2 2/1/2 5/6/2
f 5/6/2 2/1/2 1/3/2
f 8/7/3 6/5/3 7/8/3
f 7/8/3 6/5/3 5/6/3
f 4/2/4 8/7/4 3/4/4
f 3/4/4 8/7/4 7/8/4
f 6/5/5 8/7/5 2/1/5
f 2/1/5 8/7/5 4/2/5
f 7/8/6 5/6/6 3/4/6
f 3/4/6 5/6/6 1/3/6
o Shape_IndexedFaceSet.001_Shape_IndexedFaceSet.016
v 0.010000 0.005000 -0.045000
v 0.010000 0.005000 -0.005000
v 0.010000 0.267500 -0.045000
v 0.010000 0.267500 -0.005000
v 0.237500 0.005000 -0.045000
v 0.237500 0.005000 -0.005000
v 0.237500 0.267500 -0.045000
v 0.237500 0.267500 -0.005000
vt 0.000000 0.000000
vt 1.000000 0.000000
vt 0.000000 0.000000
vt 1.000000 0.000000
vt 0.000000 1.000000
vt 0.000000 1.000000
vt 1.000000 1.000000
vt 1.000000 1.000000
vn -1.0000 0.0000 0.0000
vn 0.0000 -1.0000 0.0000
vn 1.0000 0.0000 0.0000
vn 0.0000 1.0000 0.0000
vn 0.0000 0.0000 1.0000
vn 0.0000 0.0000 -1.0000
usemtl None
s off
f 10/9/7 12/10/7 9/11/7
f 9/11/7 12/10/7 11/12/7
f 14/13/8 10/9/8 13/14/8
f 13/14/8 10/9/8 9/11/8
f 16/15/9 14/13/9 15/16/9
f 15/16/9 14/13/9 13/14/9
f 12/10/10 16/15/10 11/12/10
f 11/12/10 16/15/10 15/16/10
f 14/13/11 16/15/11 10/9/11
f 10/9/11 16/15/11 12/10/11
f 15/16/12 13/14/12 11/12/12
f 11/12/12 13/14/12 9/11/12
o Shape_IndexedFaceSet.002_Shape_IndexedFaceSet.017
v 0.237500 0.005000 -0.045000
v 0.237500 0.005000 -0.005000
v 0.237500 0.232500 -0.045000
v 0.237500 0.232500 -0.005000
v 0.300000 0.005000 -0.045000
v 0.300000 0.005000 -0.005000
v 0.300000 0.232500 -0.045000
v 0.300000 0.232500 -0.005000
vt 1.000000 1.000000
vt 0.000000 1.000000
vt 1.000000 1.000000
vt 0.000000 1.000000
vt 1.000000 0.000000
vt 1.000000 0.000000
vt 0.000000 0.000000
vt 0.000000 0.000000
vn 1.0000 0.0000 0.0000
vn 0.0000 1.0000 0.0000
vn -1.0000 0.0000 0.0000
vn 0.0000 -1.0000 0.0000
vn 0.0000 0.0000 1.0000
vn 0.0000 0.0000 -1.0000
usemtl None
s off
f 24/17/13 22/18/13 23/19/13
f 23/19/13 22/18/13 21/20/13
f 20/21/14 24/17/14 19/22/14
f 19/22/14 24/17/14 23/19/14
f 18/23/15 20/21/15 17/24/15
f 17/24/15 20/21/15 19/22/15
f 22/18/16 18/23/16 21/20/16
f 21/20/16 18/23/16 17/24/16
f 20/21/17 18/23/17 24/17/17
f 24/17/17 18/23/17 22/18/17
f 17/24/18 19/22/18 21/20/18
f 21/20/18 19/22/18 23/19/18
o Shape_IndexedFaceSet.003_Shape_IndexedFaceSet.018
v 0.272500 0.232500 -0.045000
v 0.272500 0.232500 -0.005000
v 0.272500 0.267500 -0.045000
v 0.272500 0.267500 -0.005000
v 0.300000 0.232500 -0.045000
v 0.300000 0.232500 -0.005000
v 0.300000 0.267500 -0.045000
v 0.300000 0.267500 -0.005000
vt 1.000000 0.000000
vt 1.000000 1.000000
vt 0.000000 0.000000
vt 0.000000 1.000000
vt 1.000000 0.000000
vt 0.000000 0.000000
vt 1.000000 1.000000
vt 0.000000 1.000000
vn -1.0000 0.0000 0.0000
vn 0.0000 -1.0000 0.0000
vn 1.0000 0.0000 0.0000
vn 0.0000 1.0000 0.0000
vn 0.0000 0.0000 1.0000
vn 0.0000 0.0000 -1.0000
usemtl None
s off
f 26/25/19 28/26/19 25/27/19
f 25/27/19 28/26/19 27/28/19
f 30/29/20 26/25/20 29/30/20
f 29/30/20 26/25/20 25/27/20
f 32/31/21 30/29/21 31/32/21
f 31/32/21 30/29/21 29/30/21
f 28/26/22 32/31/22 27/28/22
f 27/28/22 32/31/22 31/32/22
f 30/29/23 32/31/23 26/25/23
f 26/25/23 32/31/23 28/26/23
f 31/32/24 29/30/24 27/28/24
f 27/28/24 29/30/24 25/27/24
