# Blender v2.93.1 OBJ File: ''
# www.blender.org
mtllib base_link.mtl
o base_link_base_link.001
v 0.037500 0.050000 0.075000
v -0.037500 0.050000 0.075000
v 0.037500 -0.175000 0.075000
v -0.037500 -0.175000 0.075000
v 0.062500 -0.175000 0.075000
v 0.100000 -0.225000 0.075000
v 0.062500 0.050000 0.075000
v 0.100000 0.125000 0.075000
v -0.100000 0.125000 0.075000
v -0.100000 -0.225000 0.075000
v -0.062500 -0.175000 0.075000
v -0.062500 0.050000 0.075000
v 0.100000 -0.225000 0.000000
v 0.100000 0.225000 -0.000000
v 0.100000 0.125000 0.125000
v 0.100000 0.225000 0.125000
v -0.100000 0.225000 0.125000
v -0.100000 0.225000 -0.000000
v -0.100000 0.125000 0.125000
v -0.100000 -0.225000 0.000000
v -0.031331 0.190601 0.125000
v -0.023579 0.200865 0.125000
v -0.018425 0.145242 0.125000
v -0.027931 0.153908 0.125000
v -0.033664 0.165422 0.125000
v -0.034851 0.178229 0.125000
v -0.012643 0.207637 0.125000
v 0.000000 0.210000 0.125000
v 0.012643 0.207637 0.125000
v 0.023579 0.200865 0.125000
v 0.027931 0.153908 0.125000
v 0.018425 0.145242 0.125000
v 0.031331 0.190601 0.125000
v 0.034851 0.178229 0.125000
v 0.033664 0.165422 0.125000
v 0.004424 0.140397 0.125000
v 0.000000 0.140000 0.125000
v -0.006431 0.140596 0.125000
v 0.037500 -0.175000 0.025000
v 0.037500 0.050000 0.025000
v 0.062500 0.050000 0.025000
v 0.062500 -0.175000 0.025000
v -0.062500 -0.175000 0.025000
v -0.062500 0.050000 0.025000
v -0.037500 0.050000 0.025000
v -0.037500 -0.175000 0.025000
v 0.025196 0.178648 0.150000
v 0.034851 0.178229 0.150000
v 0.031331 0.190601 0.150000
v 0.018579 0.191728 0.150000
v 0.023579 0.200865 0.150000
v 0.010168 0.197839 0.150000
v 0.012643 0.207637 0.150000
v 0.000000 0.200000 0.150000
v 0.000000 0.210000 0.150000
v -0.010168 0.197839 0.150000
v -0.012643 0.207637 0.150000
v -0.022528 0.186858 0.150000
v -0.023579 0.200865 0.150000
v -0.031331 0.190601 0.150000
v -0.024863 0.172387 0.150000
v -0.034851 0.178229 0.150000
v -0.033664 0.165422 0.150000
v -0.021651 0.162500 0.150000
v -0.027931 0.153908 0.150000
v -0.014695 0.154775 0.150000
v -0.018425 0.145242 0.150000
v -0.005198 0.150546 0.150000
v -0.004424 0.140397 0.150000
v 0.000000 0.150000 0.150000
v 0.000000 0.140000 0.150000
v 0.004218 0.150430 0.150000
v 0.006431 0.140596 0.150000
v 0.019571 0.158717 0.150000
v 0.018425 0.145242 0.150000
v 0.027931 0.153908 0.150000
v 0.033664 0.165422 0.150000
v -0.000000 0.200000 0.150000
v -0.000000 0.200000 0.125000
v 0.010168 0.197839 0.125000
v 0.022528 0.186858 0.125000
v 0.024863 0.172387 0.125000
v 0.021651 0.162500 0.125000
v 0.014695 0.154775 0.125000
v 0.005198 0.150546 0.125000
v -0.004218 0.150430 0.125000
v -0.019571 0.158717 0.125000
v -0.025196 0.178648 0.125000
v -0.014148 0.196165 0.125000
v 0.000000 0.150000 0.125000
vt 0.247113 0.140764
vt 0.247113 0.309680
vt 0.165049 0.140764
vt 0.165049 0.309680
vt 0.165049 0.084458
vt 0.146813 0.000000
vt 0.247113 0.084458
vt 0.274468 0.000000
vt 0.274468 0.450444
vt 0.146813 0.450444
vt 0.165049 0.365986
vt 0.247113 0.365986
vt 0.301822 1.000000
vt 0.274468 1.000000
vt 0.301822 0.222222
vt 0.274468 0.000000
vt 0.320059 0.222222
vt 0.320059 0.000000
vt 0.365650 0.450444
vt 0.365650 0.000000
vt 0.411241 0.450444
vt 0.411241 0.000000
vt 0.365650 0.777778
vt 0.365650 1.000000
vt 0.347413 0.777778
vt 0.320059 1.000000
vt 0.347413 0.000000
vt 0.320059 0.000000
vt 0.447713 0.450444
vt 0.447713 0.000000
vt 0.475068 0.450444
vt 0.475068 0.000000
vt 0.001983 0.510464
vt 0.001983 0.000000
vt 0.146813 0.510464
vt 0.146813 0.000000
vt 0.475068 0.450444
vt 0.475068 0.000000
vt 0.493304 0.450444
vt 0.493304 0.000000
vt 0.447713 0.450444
vt 0.435167 0.295786
vt 0.438911 0.278328
vt 0.418623 0.266719
vt 0.421784 0.288128
vt 0.411241 0.450444
vt 0.425984 0.301041
vt 0.430655 0.303714
vt 0.441381 0.253698
vt 0.442243 0.225222
vt 0.447713 0.000000
vt 0.441381 0.196746
vt 0.438911 0.172116
vt 0.411241 0.000000
vt 0.421784 0.162316
vt 0.418623 0.183725
vt 0.435167 0.154658
vt 0.430655 0.146731
vt 0.425984 0.149404
vt 0.416856 0.215258
vt 0.416711 0.225222
vt 0.416929 0.239707
vt 0.614639 0.999915
vt 0.614639 0.000012
vt 0.669474 0.999903
vt 0.669474 0.000000
vt 0.942908 0.111925
vt 0.888467 0.111927
vt 0.942908 0.000000
vt 0.888467 0.000002
vt 0.614639 0.000000
vt 0.614639 0.999998
vt 0.559801 0.000002
vt 0.559801 1.000000
vt 0.833193 0.330471
vt 0.887635 0.330472
vt 0.833193 0.442398
vt 0.887635 0.442398
vt 0.724308 0.503667
vt 0.724308 0.000000
vt 0.778751 0.503667
vt 0.778751 0.000000
vt 0.724308 0.000000
vt 0.724308 0.999903
vt 0.669474 0.000012
vt 0.669474 0.999915
vt 0.942076 0.330471
vt 0.887635 0.330472
vt 0.942076 0.218545
vt 0.887635 0.218547
vt 0.504963 1.000000
vt 0.504963 0.000002
vt 0.559801 0.999997
vt 0.559801 0.000000
vt 0.833193 0.218545
vt 0.887635 0.218545
vt 0.833193 0.330471
vt 0.887635 0.330471
vt 0.778751 0.503667
vt 0.778751 0.000000
vt 0.833193 0.503667
vt 0.833193 0.000000
vt 0.162713 0.472138
vt 0.163216 0.450444
vt 0.167470 0.459652
vt 0.167014 0.488366
vt 0.170671 0.478125
vt 0.168662 0.507874
vt 0.172388 0.503366
vt 0.168756 0.530905
vt 0.172388 0.531968
vt 0.167281 0.553476
vt 0.170671 0.560067
vt 0.162455 0.580023
vt 0.167470 0.583869
vt 0.163217 0.600158
vt 0.157042 0.583719
vt 0.158485 0.606736
vt 0.153915 0.602713
vt 0.153670 0.575465
vt 0.150123 0.588633
vt 0.151337 0.559046
vt 0.147622 0.566397
vt 0.150446 0.537301
vt 0.146813 0.534488
vt 0.150600 0.525588
vt 0.146969 0.524525
vt 0.151042 0.516177
vt 0.147622 0.510168
vt 0.155094 0.482632
vt 0.150123 0.483768
vt 0.153915 0.463375
vt 0.158485 0.451743
vt 0.172388 0.527835
vt 0.172388 0.503385
vt 0.181506 0.523314
vt 0.181506 0.498865
vt 0.172388 0.471853
vt 0.181506 0.471853
vt 0.172388 0.450444
vt 0.181506 0.450444
vt 0.208860 0.556388
vt 0.199742 0.556388
vt 0.199742 0.532902
vt 0.208860 0.532902
vt 0.199742 0.504876
vt 0.208860 0.504876
vt 0.199742 0.476094
vt 0.208860 0.476094
vt 0.199742 0.450444
vt 0.208860 0.450444
vt 0.181506 0.450444
vt 0.190624 0.450444
vt 0.190624 0.475074
vt 0.181506 0.475074
vt 0.190624 0.503550
vt 0.181506 0.503550
vt 0.190624 0.532026
vt 0.181506 0.532026
vt 0.190624 0.556656
vt 0.181506 0.556656
vt 0.199742 0.556388
vt 0.190624 0.556388
vt 0.190624 0.530739
vt 0.199742 0.530739
vt 0.190624 0.501957
vt 0.199742 0.501957
vt 0.190624 0.473930
vt 0.199742 0.473930
vt 0.190624 0.450444
vt 0.199742 0.450444
vt 0.181506 0.576256
vt 0.172388 0.576256
vt 0.172388 0.554847
vt 0.181506 0.554847
vt 0.942078 0.319066
vt 0.969498 0.319096
vt 0.942076 0.364193
vt 0.969496 0.364223
vt 0.942094 0.401387
vt 0.969532 0.418825
vt 0.997021 0.382726
vt 0.969555 0.361006
vt 0.996944 0.324481
vt 0.969532 0.296649
vt 0.997021 0.235993
vt 0.969575 0.252762
vt 0.969664 0.218545
vt 0.942076 0.504434
vt 0.914655 0.482763
vt 0.942076 0.436198
vt 0.914655 0.440555
vt 0.914655 0.398708
vt 0.942076 0.394352
vt 0.942076 0.352144
vt 0.914655 0.330472
vt 0.943123 0.000000
vt 0.970448 0.017267
vt 0.942987 0.033890
vt 0.942908 0.077623
vt 0.970305 0.105485
vt 0.942912 0.142083
vt 0.970448 0.184033
vt 0.942163 0.218545
vt 0.969532 0.256101
vt 0.942099 0.273809
vt 0.834130 0.116266
vt 0.849367 0.199808
vt 0.835839 0.134708
vt 0.888467 0.164591
vt 0.872685 0.218545
vt 0.883124 0.057004
vt 0.888467 0.101127
vt 0.851136 0.000000
vt 0.867550 0.005899
vt 0.833193 0.093211
vt 0.834991 0.050110
vt 0.841338 0.017140
vn 0.0000 0.0000 1.0000
vn 1.0000 0.0000 0.0000
vn 0.0000 1.0000 0.0000
vn -1.0000 0.0000 0.0000
vn 0.0000 -1.0000 0.0000
vn 0.0000 -0.0000 -1.0000
vn 0.0183 -0.9998 0.0065
vn -0.0183 -0.9998 -0.0065
vn -0.3270 -0.9448 0.0187
vn -0.3612 -0.9325 0.0000
vn -0.6737 -0.7390 0.0000
vn -0.8952 -0.4457 0.0000
vn -0.9957 -0.0923 0.0000
vn -0.9618 0.2737 0.0000
vn -0.7980 0.6026 0.0000
vn -0.5264 0.8502 0.0000
vn -0.1837 0.9830 0.0000
vn 0.1837 0.9830 0.0000
vn 0.5264 0.8502 0.0000
vn 0.7980 0.6026 0.0000
vn 0.9618 0.2737 0.0000
vn 0.9957 -0.0923 0.0000
vn 0.8952 -0.4457 0.0000
vn 0.6737 -0.7390 0.0000
vn 0.3612 -0.9325 0.0000
vn 0.3270 -0.9448 -0.0187
vn -0.2079 -0.9781 0.0000
vn -0.5878 -0.8090 0.0000
vn -0.6636 -0.7470 0.0407
vn -0.8911 -0.4508 -0.0530
vn -0.9858 -0.1590 0.0530
vn -0.9609 0.2712 -0.0551
vn -0.9506 0.3089 -0.0323
vn -0.7426 0.6686 0.0394
vn -0.4745 0.8790 -0.0461
vn -0.4067 0.9135 -0.0117
vn -0.0124 0.9999 0.0042
vn 0.0124 0.9999 -0.0042
vn 0.4067 0.9135 0.0117
vn 0.4745 0.8790 0.0461
vn 0.7426 0.6686 -0.0394
vn 0.9506 0.3089 0.0323
vn 0.9609 0.2712 0.0551
vn 0.9858 -0.1590 -0.0530
vn 0.8428 -0.5315 0.0846
vn 0.6631 -0.7464 -0.0556
vn 0.2078 -0.9776 0.0323
vn 0.2616 -0.9652 0.0000
usemtl Material
s off
f 1/1/1 2/2/1 3/3/1
f 3/3/1 2/2/1 4/4/1
f 5/5/1 6/6/1 7/7/1
f 7/7/1 6/6/1 8/8/1
f 7/7/1 8/8/1 1/1/1
f 1/1/1 8/8/1 9/9/1
f 1/1/1 9/9/1 2/2/1
f 5/5/1 3/3/1 6/6/1
f 6/6/1 3/3/1 4/4/1
f 6/6/1 4/4/1 10/10/1
f 10/10/1 4/4/1 11/11/1
f 10/10/1 11/11/1 9/9/1
f 9/9/1 11/11/1 12/12/1
f 9/9/1 12/12/1 2/2/1
f 6/13/2 13/14/2 8/15/2
f 8/15/2 13/14/2 14/16/2
f 8/15/2 14/16/2 15/17/2
f 15/17/2 14/16/2 16/18/2
f 17/19/3 16/20/3 18/21/3
f 18/21/3 16/20/3 14/22/3
f 19/23/4 17/24/4 9/25/4
f 9/25/4 17/24/4 18/26/4
f 9/25/4 18/26/4 10/27/4
f 10/27/4 18/26/4 20/28/4
f 6/29/5 10/30/5 13/31/5
f 13/31/5 10/30/5 20/32/5
f 20/33/6 18/34/6 13/35/6
f 13/35/6 18/34/6 14/36/6
f 15/37/5 19/38/5 8/39/5
f 8/39/5 19/38/5 9/40/5
f 17/41/1 21/42/1 22/43/1
f 23/44/1 24/45/1 19/46/1
f 19/46/1 24/45/1 25/47/1
f 19/46/1 25/47/1 17/41/1
f 17/41/1 25/47/1 26/48/1
f 17/41/1 26/48/1 21/42/1
f 22/43/1 27/49/1 17/41/1
f 17/41/1 27/49/1 28/50/1
f 17/41/1 28/50/1 16/51/1
f 16/51/1 28/50/1 29/52/1
f 16/51/1 29/52/1 30/53/1
f 15/54/1 31/55/1 32/56/1
f 30/53/1 33/57/1 16/51/1
f 16/51/1 33/57/1 34/58/1
f 16/51/1 34/58/1 15/54/1
f 15/54/1 34/58/1 35/59/1
f 15/54/1 35/59/1 31/55/1
f 32/56/1 36/60/1 15/54/1
f 15/54/1 36/60/1 37/61/1
f 15/54/1 37/61/1 19/46/1
f 19/46/1 37/61/1 38/62/1
f 19/46/1 38/62/1 23/44/1
f 39/63/2 40/64/2 3/65/2
f 3/65/2 40/64/2 1/66/2
f 40/67/5 41/68/5 1/69/5
f 1/69/5 41/68/5 7/70/5
f 41/71/4 42/72/4 7/73/4
f 7/73/4 42/72/4 5/74/4
f 42/75/3 39/76/3 5/77/3
f 5/77/3 39/76/3 3/78/3
f 42/79/1 41/80/1 39/81/1
f 39/81/1 41/80/1 40/82/1
f 43/83/2 44/84/2 11/85/2
f 11/85/2 44/84/2 12/86/2
f 44/87/5 45/88/5 12/89/5
f 12/89/5 45/88/5 2/90/5
f 45/91/4 46/92/4 2/93/4
f 2/93/4 46/92/4 4/94/4
f 46/95/3 43/96/3 4/97/3
f 4/97/3 43/96/3 11/98/3
f 46/99/1 45/100/1 43/101/1
f 43/101/1 45/100/1 44/102/1
f 47/103/1 48/104/1 49/105/1
f 47/103/1 49/105/1 50/106/1
f 50/106/1 49/105/1 51/107/1
f 50/106/1 51/107/1 52/108/1
f 52/108/1 51/107/1 53/109/1
f 52/108/1 53/109/1 54/110/1
f 54/110/1 53/109/1 55/111/1
f 54/110/1 55/111/1 56/112/1
f 56/112/1 55/111/1 57/113/1
f 56/112/1 57/113/1 58/114/1
f 58/114/1 57/113/1 59/115/1
f 58/114/1 59/115/1 60/116/1
f 58/114/1 60/116/1 61/117/1
f 60/116/1 62/118/1 61/117/1
f 61/117/1 62/118/1 63/119/1
f 61/117/1 63/119/1 64/120/1
f 64/120/1 63/119/1 65/121/1
f 64/120/1 65/121/1 66/122/1
f 66/122/1 65/121/1 67/123/1
f 66/122/1 67/123/1 68/124/1
f 68/124/1 67/123/1 69/125/1
f 68/124/1 69/125/1 70/126/1
f 70/126/1 69/125/1 71/127/1
f 70/126/1 71/127/1 72/128/1
f 72/128/1 71/127/1 73/129/1
f 72/128/1 73/129/1 74/130/1
f 74/130/1 73/129/1 75/131/1
f 74/130/1 75/131/1 76/132/1
f 74/130/1 76/132/1 47/103/1
f 47/103/1 76/132/1 77/133/1
f 47/103/1 77/133/1 48/104/1
f 73/134/7 69/135/7 36/136/7
f 36/136/8 69/135/8 38/137/8
f 38/137/9 69/135/9 67/138/9
f 38/137/10 67/138/10 23/139/10
f 23/139/11 67/138/11 65/140/11
f 23/139/11 65/140/11 24/141/11
f 24/142/12 65/143/12 63/144/12
f 24/142/12 63/144/12 25/145/12
f 25/145/13 63/144/13 62/146/13
f 25/145/13 62/146/13 26/147/13
f 26/147/14 62/146/14 60/148/14
f 26/147/14 60/148/14 21/149/14
f 21/149/15 60/148/15 59/150/15
f 21/149/15 59/150/15 22/151/15
f 22/152/16 59/153/16 57/154/16
f 22/152/16 57/154/16 27/155/16
f 27/155/17 57/154/17 55/156/17
f 27/155/17 55/156/17 28/157/17
f 28/157/18 55/156/18 53/158/18
f 28/157/18 53/158/18 29/159/18
f 29/159/19 53/158/19 51/160/19
f 29/159/19 51/160/19 30/161/19
f 30/162/20 51/163/20 49/164/20
f 30/162/20 49/164/20 33/165/20
f 33/165/21 49/164/21 48/166/21
f 33/165/21 48/166/21 34/167/21
f 34/167/22 48/166/22 77/168/22
f 34/167/22 77/168/22 35/169/22
f 35/169/23 77/168/23 76/170/23
f 35/169/23 76/170/23 31/171/23
f 31/172/24 76/173/24 75/174/24
f 31/172/24 75/174/24 32/175/24
f 32/175/25 75/174/25 73/134/25
f 32/175/26 73/134/26 36/136/26
f 78/176/27 79/177/27 52/178/27
f 52/178/27 79/177/27 80/179/27
f 52/178/28 80/179/28 50/180/28
f 50/180/29 80/179/29 81/181/29
f 50/182/30 81/183/30 47/184/30
f 47/184/31 81/183/31 82/185/31
f 47/184/32 82/185/32 74/186/32
f 74/186/33 82/185/33 83/187/33
f 74/186/34 83/187/34 84/188/34
f 74/189/35 84/190/35 72/191/35
f 72/191/36 84/190/36 85/192/36
f 72/191/37 85/192/37 86/193/37
f 72/191/38 86/193/38 68/194/38
f 68/194/39 86/193/39 66/195/39
f 66/195/40 86/193/40 87/196/40
f 66/197/41 87/198/41 64/199/41
f 64/199/42 87/198/42 61/200/42
f 61/200/43 87/198/43 88/201/43
f 61/200/44 88/201/44 58/202/44
f 58/202/45 88/201/45 89/203/45
f 58/204/46 89/205/46 56/206/46
f 56/206/47 89/205/47 78/176/47
f 78/176/48 89/205/48 79/177/48
f 90/207/1 87/208/1 86/209/1
f 89/210/1 88/211/1 90/207/1
f 90/207/1 88/211/1 87/208/1
f 80/212/1 79/213/1 90/207/1
f 90/207/1 79/213/1 89/210/1
f 82/214/1 81/215/1 90/207/1
f 90/207/1 81/215/1 80/212/1
f 85/216/1 84/217/1 90/207/1
f 90/207/1 84/217/1 83/218/1
f 90/207/1 83/218/1 82/214/1
